<svg width="25" height="24" viewBox="0 0 25 24" fill="none" xmlns="http://www.w3.org/2000/svg">
<path d="M5.74126 4.48C5.74126 4.97227 5.74126 5.21841 5.86658 5.39096C5.90705 5.44668 5.95603 5.49569 6.01174 5.53618C6.18421 5.66154 6.43025 5.66154 6.92232 5.66154H10.1374C10.6295 5.66154 10.8755 5.66154 11.048 5.53618C11.1037 5.49569 11.1527 5.44668 11.1932 5.39096C11.3185 5.21841 11.3185 4.97227 11.3185 4.48V1.18154C11.3185 0.689266 11.3185 0.44313 11.4438 0.270582C11.4843 0.214856 11.5333 0.16585 11.589 0.125363C11.7614 0 12.0075 0 12.4996 0H15.8787C16.3708 0 16.6168 0 16.7893 0.125363C16.845 0.16585 16.894 0.214856 16.9344 0.270582C17.0598 0.44313 17.0598 0.689266 17.0598 1.18154V4.48C17.0598 4.97227 17.0598 5.21841 17.1851 5.39096C17.2255 5.44668 17.2745 5.49569 17.3302 5.53618C17.5027 5.66154 17.7487 5.66154 18.2408 5.66154H19.8976C20.3897 5.66154 20.6357 5.66154 20.8082 5.7869C20.8639 5.82739 20.9129 5.87639 20.9533 5.93212C21.0786 6.10467 21.0786 6.3508 21.0786 6.84308V8.50051C21.0786 8.99279 21.0786 9.23892 21.204 9.41147C21.2444 9.4672 21.2934 9.5162 21.3491 9.55669C21.5216 9.68205 21.7676 9.68205 22.2597 9.68205H22.8502C23.3423 9.68205 23.5883 9.68205 23.7608 9.80742C23.8165 9.8479 23.8655 9.89691 23.906 9.95263C24.0313 10.1252 24.0313 10.3713 24.0313 10.8636V11.5364C24.0313 12.0287 24.0313 12.2748 23.906 12.4474C23.8655 12.5031 23.8165 12.5521 23.7608 12.5926C23.5883 12.7179 23.3423 12.7179 22.8502 12.7179H22.1777C21.6856 12.7179 21.4396 12.7179 21.2671 12.5926C21.2114 12.5521 21.1624 12.5031 21.1219 12.4474C20.9966 12.2748 20.9966 12.0287 20.9966 11.5364V10.9456C20.9966 10.4534 20.9966 10.2072 20.8713 10.0347C20.8308 9.97896 20.7819 9.92995 20.7262 9.88947C20.5537 9.7641 20.3076 9.7641 19.8156 9.7641H18.1588C17.6667 9.7641 17.4207 9.7641 17.2482 9.63874C17.1925 9.59825 17.1435 9.54925 17.1031 9.49352C16.9777 9.32097 16.9777 9.07484 16.9777 8.58256V6.92513C16.9777 6.43286 16.9777 6.18672 16.8524 6.01417C16.812 5.95845 16.763 5.90944 16.7073 5.86895C16.5348 5.74359 16.2888 5.74359 15.7967 5.74359H12.5816C12.0895 5.74359 11.8435 5.74359 11.671 5.86895C11.6153 5.90944 11.5663 5.95845 11.5258 6.01417C11.4005 6.18672 11.4005 6.43286 11.4005 6.92513V10.1415C11.4005 10.6338 11.4005 10.8799 11.5258 11.0525C11.5663 11.1082 11.6153 11.1572 11.671 11.1977C11.8435 11.3231 12.0895 11.3231 12.5816 11.3231H14.2383C14.7304 11.3231 14.9764 11.3231 15.1489 11.4484C15.2046 11.4889 15.2536 11.5379 15.2941 11.5937C15.4194 11.7662 15.4194 12.0123 15.4194 12.5046V14.1621C15.4194 14.6543 15.4194 14.9005 15.5447 15.073C15.5852 15.1287 15.6342 15.1777 15.6899 15.2182C15.8623 15.3436 16.1084 15.3436 16.6005 15.3436H17.191C17.6831 15.3436 17.9291 15.3436 18.1016 15.469C18.1573 15.5094 18.2063 15.5584 18.2467 15.6142C18.372 15.7867 18.372 16.0329 18.372 16.5251V17.198C18.372 17.6902 18.372 17.9364 18.2467 18.1089C18.2063 18.1646 18.1573 18.2136 18.1016 18.2541C17.9291 18.3795 17.6831 18.3795 17.191 18.3795H16.5184C16.0264 18.3795 15.7803 18.3795 15.6079 18.2541C15.5521 18.2136 15.5032 18.1646 15.4627 18.1089C15.3374 17.9364 15.3374 17.6902 15.3374 17.198V16.6072C15.3374 16.1149 15.3374 15.8688 15.2121 15.6962C15.1716 15.6405 15.1226 15.5915 15.0669 15.551C14.8944 15.4256 14.6484 15.4256 14.1563 15.4256H12.4996C12.0075 15.4256 11.7614 15.4256 11.589 15.3003C11.5333 15.2598 11.4843 15.2108 11.4438 15.1551C11.3185 14.9825 11.3185 14.7364 11.3185 14.2441V12.5867C11.3185 12.0944 11.3185 11.8483 11.1932 11.6757C11.1527 11.62 11.1037 11.571 11.048 11.5305C10.8755 11.4051 10.6295 11.4051 10.1374 11.4051H6.92232C6.43025 11.4051 6.18421 11.4051 6.01174 11.5305C5.95603 11.571 5.90705 11.62 5.86658 11.6757C5.74126 11.8483 5.74126 12.0944 5.74126 12.5867V15.8031C5.74126 16.2953 5.74126 16.5415 5.86658 16.714C5.90705 16.7698 5.95603 16.8188 6.01174 16.8593C6.18421 16.9846 6.43025 16.9846 6.92232 16.9846H8.57909C9.07116 16.9846 9.3172 16.9846 9.48968 17.11C9.54538 17.1505 9.59437 17.1995 9.63484 17.2552C9.76015 17.4277 9.76015 17.6739 9.76015 18.1662V19.7826C9.76015 20.2748 9.76015 20.521 9.88546 20.6935C9.92593 20.7492 9.97492 20.7983 10.0306 20.8387C10.2031 20.9641 10.4491 20.9641 10.9412 20.9641H11.5112C12.0033 20.9641 12.2493 20.9641 12.4218 21.0895C12.4775 21.13 12.5265 21.179 12.567 21.2347C12.6923 21.4072 12.6923 21.6534 12.6923 22.1456V22.8185C12.6923 23.3107 12.6923 23.5569 12.567 23.7294C12.5265 23.7851 12.4775 23.8342 12.4218 23.8746C12.2493 24 12.0033 24 11.5112 24H10.8387C10.3466 24 10.1006 24 9.9281 23.8746C9.8724 23.8342 9.82341 23.7851 9.78294 23.7294C9.65763 23.5569 9.65763 23.3107 9.65763 22.8185V22.2687C9.65763 21.7764 9.65763 21.5303 9.53231 21.3578C9.49184 21.302 9.44286 21.253 9.38715 21.2125C9.21468 21.0872 8.96864 21.0872 8.47657 21.0872H6.84031C6.34823 21.0872 6.1022 21.0872 5.92972 20.9618C5.87402 20.9213 5.82503 20.8723 5.78456 20.8166C5.65925 20.6441 5.65925 20.3979 5.65925 19.9056V18.2482C5.65925 17.7559 5.65925 17.5098 5.53393 17.3372C5.49346 17.2815 5.44448 17.2325 5.38877 17.192C5.2163 17.0667 4.97026 17.0667 4.47819 17.0667H1.18106C0.688987 17.0667 0.44295 17.0667 0.270472 16.9413C0.214769 16.9008 0.165783 16.8518 0.125312 16.7961C0 16.6235 0 16.3774 0 15.8851V12.5046C0 12.0123 0 11.7662 0.125312 11.5937C0.165783 11.5379 0.214769 11.4889 0.270472 11.4484C0.44295 11.3231 0.688987 11.3231 1.18106 11.3231H4.47819C4.97026 11.3231 5.2163 11.3231 5.38877 11.1977C5.44448 11.1572 5.49346 11.1082 5.53393 11.0525C5.65925 10.8799 5.65925 10.6338 5.65925 10.1415V6.92513C5.65925 6.43286 5.65925 6.18672 5.53393 6.01417C5.49346 5.95845 5.44448 5.90944 5.38877 5.86895C5.2163 5.74359 4.97026 5.74359 4.47819 5.74359H1.18106C0.688987 5.74359 0.44295 5.74359 0.270472 5.61823C0.214769 5.57774 0.165783 5.52873 0.125312 5.47301C0 5.30046 0 5.05432 0 4.56205V1.18154C0 0.689266 0 0.44313 0.125312 0.270582C0.165783 0.214856 0.214769 0.16585 0.270472 0.125363C0.44295 0 0.688987 0 1.18106 0H4.5602C5.05228 0 5.29831 0 5.47079 0.125363C5.5265 0.16585 5.57548 0.214856 5.61595 0.270582C5.74126 0.44313 5.74126 0.689266 5.74126 1.18154V4.48Z" fill="#111111"/>
</svg>
