<svg preserveAspectRatio="none" width="100%" height="100%" overflow="visible" style="display: block;" viewBox="0 0 18 18" fill="none" xmlns="http://www.w3.org/2000/svg">
<g id="Frame" clip-path="url(#clip0_0_77)">
<path id="Vector" fill-rule="evenodd" clip-rule="evenodd" d="M9 0.9375C4.54721 0.9375 0.9375 4.54721 0.9375 9C0.9375 13.4528 4.54721 17.0625 9 17.0625C13.4528 17.0625 17.0625 13.4528 17.0625 9C17.0625 4.54721 13.4528 0.9375 9 0.9375ZM5.64783 8.97727C5.42816 8.7576 5.07201 8.7576 4.85233 8.97727C4.63267 9.19695 4.63267 9.55305 4.85233 9.77273L7.10233 12.0227C7.32201 12.2424 7.6782 12.2424 7.8978 12.0227L13.1478 6.77275C13.3675 6.55308 13.3675 6.19692 13.1478 5.97725C12.9281 5.75758 12.572 5.75758 12.3524 5.97725L7.50008 10.8295L5.64783 8.97727Z" fill="var(--fill-0, #111111)"/>
</g>
<defs>
<clipPath id="clip0_0_77">
<rect width="18" height="18" fill="white"/>
</clipPath>
</defs>
</svg>
