<svg preserveAspectRatio="none" width="100%" height="100%" overflow="visible" style="display: block;" viewBox="0 0 14 14" fill="none" xmlns="http://www.w3.org/2000/svg">
<g id="Pixel/Solid/Sparkles" clip-path="url(#clip0_0_9)">
<path id="Vector" d="M13.4167 10.5V11.6667H12.25V12.25H11.6667V13.4167H10.5V12.25H9.91667V11.6667H8.75V10.5H9.91667V9.91667H10.5V8.75H11.6667V9.91667H12.25V10.5H13.4167Z" fill="var(--fill-0, #818181)"/>
<path id="Vector_2" d="M13.4167 2.33319V3.49986H12.25V4.08319H11.6667V5.24986H10.5V4.08319H9.91667V3.49986H8.75V2.33319H9.91667V1.74986H10.5V0.583191H11.6667V1.74986H12.25V2.33319H13.4167Z" fill="var(--fill-0, #818181)"/>
<path id="Vector_3" d="M9.91667 6.41652V7.58319H8.75V8.16652H7.58333V8.74986H7V9.33319H6.41667V10.4999H5.83333V11.6665H4.66667V10.4999H4.08333V9.33319H3.5V8.74986H2.91667V8.16652H1.75V7.58319H0.583333V6.41652H1.75V5.83319H2.91667V5.24986H3.5V4.66652H4.08333V3.49986H4.66667V2.33319H5.83333V3.49986H6.41667V4.66652H7V5.24986H7.58333V5.83319H8.75V6.41652H9.91667Z" fill="var(--fill-0, #818181)"/>
</g>
<defs>
<clipPath id="clip0_0_9">
<rect width="14" height="14" fill="white"/>
</clipPath>
</defs>
</svg>
