<svg preserveAspectRatio="none" width="100%" height="100%" overflow="visible" style="display: block;" viewBox="0 0 12 12" fill="none" xmlns="http://www.w3.org/2000/svg">
<g id="Pixel/Solid/Times Circle">
<path id="Vector" d="M10.175 4.16283V3.23783H9.7125V2.31283H9.25V1.85033H8.7875V1.38783H7.8625V0.925326H6.9375V0.462826H4.1625V0.925326H3.2375V1.38783H2.3125V1.85033H1.85V2.31283H1.3875V3.23783H0.925V4.16283H0.4625V6.93783H0.925V7.86283H1.3875V8.78783H1.85V9.25033H2.3125V9.71283H3.2375V10.1753H4.1625V10.6378H6.9375V10.1753H7.8625V9.71283H8.7875V9.25033H9.25V8.78783H9.7125V7.86283H10.175V6.93783H10.6375V4.16283H10.175ZM6.475 7.40033V6.93783H6.0125V6.47533H5.0875V6.93783H4.625V7.40033H4.1625V7.86283H3.7V7.40033H3.2375V6.93783H3.7V6.47533H4.1625V6.01283H4.625V5.08783H4.1625V4.62533H3.7V4.16283H3.2375V3.70033H3.7V3.23783H4.1625V3.70033H4.625V4.16283H5.0875V4.62533H6.0125V4.16283H6.475V3.70033H6.9375V3.23783H7.4V3.70033H7.8625V4.16283H7.4V4.62533H6.9375V5.08783H6.475V6.01283H6.9375V6.47533H7.4V6.93783H7.8625V7.40033H7.4V7.86283H6.9375V7.40033H6.475Z" fill="var(--fill-0, black)"/>
</g>
</svg>
