<svg preserveAspectRatio="none" width="100%" height="100%" overflow="visible" style="display: block;" viewBox="0 0 12 12" fill="none" xmlns="http://www.w3.org/2000/svg">
<g id="Pixel/Solid/Times Circle">
<path id="Vector" d="M10.175 4.1627V3.2377H9.7125V2.3127H9.25V1.8502H8.7875V1.3877H7.8625V0.925195H6.9375V0.462695H4.1625V0.925195H3.2375V1.3877H2.3125V1.8502H1.85V2.3127H1.3875V3.2377H0.925V4.1627H0.4625V6.9377H0.925V7.8627H1.3875V8.7877H1.85V9.2502H2.3125V9.7127H3.2375V10.1752H4.1625V10.6377H6.9375V10.1752H7.8625V9.7127H8.7875V9.2502H9.25V8.7877H9.7125V7.8627H10.175V6.9377H10.6375V4.1627H10.175ZM6.475 7.4002V6.9377H6.0125V6.4752H5.0875V6.9377H4.625V7.4002H4.1625V7.8627H3.7V7.4002H3.2375V6.9377H3.7V6.4752H4.1625V6.0127H4.625V5.0877H4.1625V4.6252H3.7V4.1627H3.2375V3.7002H3.7V3.2377H4.1625V3.7002H4.625V4.1627H5.0875V4.6252H6.0125V4.1627H6.475V3.7002H6.9375V3.2377H7.4V3.7002H7.8625V4.1627H7.4V4.6252H6.9375V5.0877H6.475V6.0127H6.9375V6.4752H7.4V6.9377H7.8625V7.4002H7.4V7.8627H6.9375V7.4002H6.475Z" fill="var(--fill-0, black)"/>
</g>
</svg>
